<?xml version="1.0"?>
<svg version="1.1" xmlns="http://www.w3.org/2000/svg" width="260" height="50" style=""><path fill="#32e66e" d="M15.751953125,38.685546875q0-0.08203125,0.0546875-0.5810546875t0.1435546875-1.216796875t0.1982421875-1.544921875t0.19140625-1.5654296875t0.1435546875-1.298828125t0.0615234375-0.751953125q-0.109375-0.0546875-0.2666015625-0.1572265625t-0.1572265625-0.2392578125q0-0.19140625,0.1845703125-0.3076171875t0.3212890625-0.1708984375q0.0546875-0.697265625,0.13671875-1.94140625t0.2529296875-2.6865234375t0.478515625-2.92578125t0.8134765625-2.693359375t1.216796875-1.9755859375t1.75-0.765625t1.72265625,0.65625t1.1142578125,1.708984375t0.65625,2.337890625t0.341796875,2.556640625t0.1435546875,2.37890625t0.0546875,1.77734375q0.02734375,0.423828125,0.205078125,0.5673828125t0.3896484375,0.1982421875t0.3828125,0.123046875t0.1708984375,0.341796875q0,0.314453125-0.3828125,0.4375t-0.6015625,0.150390625q0.13671875,1.708984375,0.3759765625,3.36328125t0.6357421875,3.3359375q0.0546875,0.314453125,0.150390625,0.6357421875t0.095703125,0.6220703125q0,0.21875-0.150390625,0.3623046875t-0.3896484375,0.2255859375t-0.478515625,0.109375t-0.4033203125,0.02734375q-0.615234375,0-1.0390625-0.232421875t-0.560546875-0.888671875q-0.369140625-1.763671875-0.724609375-3.705078125q-0.30078125-1.681640625-0.30078125-3.267578125q0-0.24609375,0.013671875-0.4921875q-1.1484375,0-2.310546875,0.0546875t-2.228515625,0.41015625q-0.02734375,0.369140625-0.13671875,1.39453125t-0.24609375,2.201171875t-0.2802734375,2.2490234375t-0.1708984375,1.5244140625q-0.02734375,0.19140625-0.2802734375,0.3623046875t-0.546875,0.1845703125t-0.51953125-0.1845703125t-0.2255859375-0.7041015625z M18.30859375,30.400390625q1.06640625-0.24609375,2.1396484375-0.287109375t2.1669921875-0.095703125q-0.0546875-0.341796875-0.02734375-0.7041015625t0.02734375-0.7314453125q0-0.806640625-0.041015625-1.873046875t-0.123046875-2.16015625t-0.2119140625-2.1533203125t-0.2939453125-1.88671875t-0.3486328125-1.3193359375t-0.4033203125-0.4921875q-0.423828125,0.02734375-0.7998046875,0.7314453125t-0.68359375,1.791015625t-0.560546875,2.43359375t-0.423828125,2.6318359375t-0.2802734375,2.392578125t-0.13671875,1.72265625z M29.52869140625,36.40234375q0-0.478515625,0.328125-0.6083984375t0.7109375-0.1298828125q0.669921875,0,1.134765625,0.6015625t0.8818359375,1.3193359375t0.8271484375,1.3193359375t0.970703125,0.6015625q0.423828125,0,0.7724609375-0.2119140625t0.6015625-0.533203125t0.3896484375-0.724609375t0.13671875-0.7998046875q0-1.0390625-0.4169921875-2.146484375t-1.06640625-2.283203125t-1.3740234375-2.40625t-1.3671875-2.501953125t-1.06640625-2.5908203125t-0.423828125-2.6591796875q0-2.009765625,1.203125-3.1171875t3.171875-1.107421875q0.669921875,0,1.353515625,0.19140625t1.2578125,0.57421875t0.9365234375,0.943359375t0.3623046875,1.3125q0,0.24609375-0.3623046875,0.3212890625t-0.5263671875,0.0751953125q-0.24609375,0-0.533203125-0.0615234375t-0.369140625-0.3349609375t-0.232421875-0.62890625t-0.3759765625-0.6630859375t-0.533203125-0.533203125t-0.6767578125-0.2255859375q-0.615234375,0-1.0458984375,0.2529296875t-0.697265625,0.6767578125t-0.396484375,0.9501953125t-0.1298828125,1.0869140625q0,1.3125,0.451171875,2.6455078125t1.12109375,2.65234375t1.4560546875,2.6044921875t1.4560546875,2.501953125t1.12109375,2.37890625t0.451171875,2.201171875q0,0.9296875-0.4375,1.572265625t-1.107421875,1.0458984375t-1.4833984375,0.587890625t-1.5927734375,0.1845703125q-0.833984375,0-1.708984375-0.3349609375t-1.572265625-0.9228515625t-1.1484375-1.3740234375t-0.451171875-1.7021484375z M40.9948828125,19.544921875q0-0.19140625,0.2666015625-0.2939453125t0.3486328125-0.1025390625l0.505859375-0.08203125q0.505859375-0.08203125,1.025390625-0.1435546875t1.01171875-0.1162109375q1.736328125-0.21875,3.47265625-0.4306640625t3.5-0.2119140625q0.13671875,0,0.3759765625,0.013671875t0.478515625,0.0751953125t0.41015625,0.1708984375t0.1708984375,0.30078125q0,0.13671875-0.1298828125,0.2392578125t-0.3076171875,0.1572265625t-0.3623046875,0.068359375t-0.2939453125,0.013671875l-0.2392578125,0t-0.2392578125-0.0546875q-0.724609375,0-1.4287109375,0.068359375t-1.4287109375,0.123046875q0.19140625,0.21875,0.205078125,0.615234375t0.02734375,0.68359375q0,4.83984375,0.068359375,9.625t0.123046875,9.666015625l0,0.02734375q-0.451171875,0.396484375-0.7724609375,0.505859375t-0.6494140625,0.109375q-0.314453125,0-0.6357421875-0.1162109375t-0.7724609375-0.4990234375l0-0.02734375l0.109375-10.732421875q0-1.06640625-0.02734375-2.3515625t-0.02734375-2.6044921875t0.041015625-2.5498046875t0.21875-2.146484375q-0.806640625,0.08203125-1.708984375,0.24609375q-0.779296875,0.13671875-1.490234375,0.13671875l-0.24609375,0q-0.0546875,0-0.3212890625,0.013671875t-0.546875-0.013671875t-0.505859375-0.109375t-0.2255859375-0.2734375z M59.005390625,19.544921875q0-0.19140625,0.2666015625-0.2939453125t0.3486328125-0.1025390625l0.505859375-0.08203125q0.505859375-0.08203125,1.025390625-0.1435546875t1.01171875-0.1162109375q1.736328125-0.21875,3.47265625-0.4306640625t3.5-0.2119140625q0.13671875,0,0.3759765625,0.013671875t0.478515625,0.0751953125t0.41015625,0.1708984375t0.1708984375,0.30078125q0,0.13671875-0.1298828125,0.2392578125t-0.3076171875,0.1572265625t-0.3623046875,0.068359375t-0.2939453125,0.013671875l-0.2392578125,0t-0.2392578125-0.0546875q-0.724609375,0-1.4287109375,0.068359375t-1.4287109375,0.123046875q0.19140625,0.21875,0.205078125,0.615234375t0.02734375,0.68359375q0,4.83984375,0.068359375,9.625t0.123046875,9.666015625l0,0.02734375q-0.451171875,0.396484375-0.7724609375,0.505859375t-0.6494140625,0.109375q-0.314453125,0-0.6357421875-0.1162109375t-0.7724609375-0.4990234375l0-0.02734375l0.109375-10.732421875q0-1.06640625-0.02734375-2.3515625t-0.02734375-2.6044921875t0.041015625-2.5498046875t0.21875-2.146484375q-0.806640625,0.08203125-1.708984375,0.24609375q-0.779296875,0.13671875-1.490234375,0.13671875l-0.24609375,0q-0.0546875,0-0.3212890625,0.013671875t-0.546875-0.013671875t-0.505859375-0.109375t-0.2255859375-0.2734375z M72.52236328125,34.4609375q0-0.95703125,0.2119140625-2.255859375t0.7177734375-2.4609375t1.3330078125-1.9755859375t2.0849609375-0.8134765625q1.17578125,0,1.763671875,0.6767578125t0.587890625,1.8251953125q0,0.751953125-0.2802734375,1.6474609375t-0.7998046875,1.6953125t-1.23046875,1.3330078125t-1.5859375,0.533203125l-0.35546875-0.02734375q0,0.369140625,0.109375,0.9912109375t0.3212890625,1.2373046875t0.546875,1.080078125t0.8134765625,0.46484375q0.697265625,0,1.33984375-0.560546875t1.216796875-1.244140625t1.06640625-1.244140625t0.90234375-0.560546875q0.21875,0,0.451171875,0.068359375t0.259765625,0.3828125q0,0.19140625-0.1025390625,0.314453125t-0.1845703125,0.2734375q-0.423828125,0.724609375-0.9228515625,1.380859375t-1.1279296875,1.189453125t-1.3740234375,0.8408203125t-1.6474609375,0.3076171875q-1.17578125,0-1.955078125-0.4169921875t-1.2578125-1.12109375t-0.6904296875-1.626953125t-0.2119140625-1.9345703125z M74.96962890625,33.421875l0.3828125,0.341796875q0.2734375,0.24609375,0.546875,0.109375t0.4921875-0.4990234375t0.4033203125-0.8955078125t0.328125-1.09375t0.2119140625-1.09375t0.068359375-0.888671875l0-0.46484375t-0.041015625-0.4921875t-0.1435546875-0.3896484375t-0.3212890625-0.1982421875q-0.068359375-0.013671875-0.123046875-0.013671875q-0.46484375,0-0.79296875,0.587890625q-0.35546875,0.65625-0.57421875,1.5927734375t-0.314453125,1.9208984375t-0.123046875,1.4765625z M83.9475390625,33.900390625q0-0.9296875,0.2529296875-1.791015625t0.7587890625-1.5380859375t1.2646484375-1.080078125t1.7568359375-0.4033203125q0.615234375,0,1.3603515625,0.1845703125t1.4013671875,0.546875t1.09375,0.9228515625t0.4375,1.28515625q0,0.341796875-0.1162109375,0.51953125t-0.4716796875,0.177734375l-0.150390625-0.02734375q0.396484375,1.06640625,0.68359375,2.1875t0.560546875,2.2421875q0.109375,0.21875,0.1640625,0.3896484375t0.0546875,0.3349609375q0,0.21875-0.123046875,0.3623046875t-0.3212890625,0.2119140625t-0.41015625,0.095703125t-0.3759765625,0.02734375q-0.587890625,0-0.8818359375-0.205078125t-0.423828125-0.560546875t-0.1572265625-0.7998046875t-0.109375-0.8955078125q-0.1640625,0.533203125-0.4306640625,1.0390625t-0.62890625,0.9091796875t-0.8544921875,0.642578125t-1.107421875,0.2392578125q-0.90234375,0-1.517578125-0.51953125t-0.9912109375-1.2783203125t-0.546875-1.6201171875t-0.1708984375-1.599609375z M85.8889453125,33.708984375q0,0.505859375,0.068359375,1.06640625t0.2255859375,1.107421875t0.4033203125,1.0322265625t0.615234375,0.8544921875q0.669921875-0.724609375,0.9912109375-1.763671875t0.57421875-2.0029296875t0.57421875-1.654296875t0.9912109375-0.6904296875q0.423828125,0,0.7109375,0.150390625q-0.13671875-0.341796875-0.451171875-0.6630859375t-0.7041015625-0.587890625t-0.806640625-0.4375t-0.7861328125-0.1708984375q-0.109375,0-0.2529296875,0.0341796875t-0.2255859375,0.0068359375q-0.560546875,0.1640625-0.9228515625,0.5673828125t-0.587890625,0.9501953125t-0.3212890625,1.12109375t-0.095703125,1.080078125z M95.83072265625,30.4755859375q-0.0341796875-0.4580078125,0.0546875-0.8408203125t0.35546875-0.6220703125t0.8544921875-0.2392578125q0.13671875,0,0.3349609375,0.0341796875t0.3896484375,0.0888671875t0.3212890625,0.1640625t0.1298828125,0.30078125l0,1.544921875q0.533203125-0.615234375,1.162109375-0.8818359375t1.435546875-0.2666015625q0.615234375,0,1.216796875,0.2802734375t1.134765625,0.7451171875t0.9228515625,1.025390625t0.5673828125,1.12109375q0.109375-0.505859375,0.24609375-1.2373046875t0.4033203125-1.4013671875t0.7041015625-1.1484375t1.162109375-0.478515625q0.779296875,0,1.3125,0.560546875t0.8681640625,1.4560546875t0.505859375,2.0029296875t0.2529296875,2.1875t0.08203125,2.0166015625l0,1.4697265625q0,0.1640625-0.123046875,0.2666015625t-0.3076171875,0.1572265625t-0.3828125,0.068359375t-0.3076171875,0.013671875q-0.423828125,0-0.7724609375-0.1298828125t-0.3486328125-0.6630859375l0-1.23046875t-0.02734375-1.5927734375t-0.095703125-1.708984375t-0.177734375-1.5517578125t-0.2802734375-1.12109375t-0.4169921875-0.4375q-0.341796875,0-0.4921875,0.3828125t-0.2529296875,0.970703125t-0.1572265625,1.244140625t-0.150390625,1.244140625t-0.3076171875,0.9638671875t-0.5810546875,0.3759765625q-0.396484375,0-0.697265625-0.3759765625t-0.5947265625-0.9365234375t-0.587890625-1.203125t-0.6494140625-1.203125q-0.35546875-0.57421875-0.765625-0.9296875q-0.369140625-0.341796875-0.833984375-0.328125l-0.068359375,0q-0.615234375,0.02734375-0.9638671875,0.4443359375t-0.533203125,1.0185546875t-0.2255859375,1.2919921875t-0.041015625,1.2099609375q0,0.4921875,0.08203125,1.1484375q0.0546875,0.4375,0.0546875,0.833984375q0,0.205078125-0.013671875,0.396484375q-0.041015625,0.57421875-0.3076171875,0.9638671875t-0.9912109375,0.3896484375q-0.2734375,0-0.68359375-0.0546875t-0.546875-0.369140625q-0.314453125-0.560546875-0.478515625-1.4150390625t-0.24609375-1.763671875t-0.095703125-1.8046875t-0.013671875-1.5380859375q0-0.451171875-0.0341796875-0.9091796875z"/><path fill="#" d="M117.715859375,30.0859375q0-0.53125,0.14453125-1.0234375t0.43359375-0.87890625t0.72265625-0.6171875t1.00390625-0.23046875q0.3515625,0,0.77734375,0.10546875t0.80078125,0.3125t0.625,0.52734375t0.25,0.734375q0,0.1953125-0.06640625,0.296875t-0.26953125,0.1015625l-0.0859375-0.015625q0.2265625,0.609375,0.390625,1.25t0.3203125,1.28125q0.0625,0.125,0.09375,0.22265625t0.03125,0.19140625q0,0.125-0.0703125,0.20703125t-0.18359375,0.12109375t-0.234375,0.0546875t-0.21484375,0.015625q-0.3359375,0-0.50390625-0.1171875t-0.2421875-0.3203125t-0.08984375-0.45703125t-0.0625-0.51171875q-0.09375,0.3046875-0.24609375,0.59375t-0.359375,0.51953125t-0.48828125,0.3671875t-0.6328125,0.13671875q-0.515625,0-0.8671875-0.296875t-0.56640625-0.73046875t-0.3125-0.92578125t-0.09765625-0.9140625z M118.825234375,29.9765625q0,0.2890625,0.0390625,0.609375t0.12890625,0.6328125t0.23046875,0.58984375t0.3515625,0.48828125q0.3828125-0.4140625,0.56640625-1.0078125t0.328125-1.14453125t0.328125-0.9453125t0.56640625-0.39453125q0.2421875,0,0.40625,0.0859375q-0.078125-0.1953125-0.2578125-0.37890625t-0.40234375-0.3359375t-0.4609375-0.25t-0.44921875-0.09765625q-0.0625,0-0.14453125,0.01953125t-0.12890625,0.00390625q-0.3203125,0.09375-0.52734375,0.32421875t-0.3359375,0.54296875t-0.18359375,0.640625t-0.0546875,0.6171875z M124.50234375,30.7109375q0-0.2890625,0.01171875-0.84765625t0.08203125-1.13671875t0.23046875-1.046875t0.48046875-0.6015625q0.078125-0.03125,0.25390625-0.0546875t0.3515625-0.015625t0.3125,0.0625t0.13671875,0.203125q0,0.03125-0.03125,0.0859375t-0.1640625,0.171875q-0.2421875,0.671875-0.296875,1.3359375t-0.0546875,1.3671875q0,0.4140625,0.02734375,0.828125t0.08984375,0.8359375q0.125-0.1796875,0.25390625-0.5390625t0.2734375-0.78515625t0.296875-0.86328125t0.34375-0.796875t0.421875-0.59375t0.51953125-0.234375q0.3203125,0,0.53515625,0.40234375t0.3984375,0.9296875t0.34375,1.0703125t0.38671875,0.83203125q0.109375-0.109375,0.17578125-0.28515625t0.10546875-0.37890625t0.046875-0.40234375t0.0078125-0.33984375q0-0.3515625-0.10546875-0.76171875t-0.22265625-0.76953125t-0.22265625-0.60546875t-0.10546875-0.28515625q0-0.0625,0.06640625-0.1015625t0.15234375-0.0625t0.17578125-0.03125t0.13671875-0.0078125q0.2890625,0,0.49609375,0.3203125t0.328125,0.7421875t0.17578125,0.85546875t0.0546875,0.67578125q0,0.3046875-0.046875,0.6484375t-0.17578125,0.63671875t-0.37890625,0.48828125t-0.6328125,0.1953125q-0.4609375,0-0.7578125-0.2578125t-0.48046875-0.625t-0.2890625-0.80078125t-0.19921875-0.78515625q-0.1796875,0.4140625-0.328125,1.046875t-0.375,1.2421875t-0.578125,1.0390625t-0.9140625,0.4296875t-0.80078125-0.27734375t-0.37890625-0.76171875l0.015625,0.015625q-0.09375-0.3515625-0.12109375-0.703125t-0.02734375-0.703125z M132.570078125,30.0859375q0-0.53125,0.14453125-1.0234375t0.43359375-0.87890625t0.72265625-0.6171875t1.00390625-0.23046875q0.3515625,0,0.77734375,0.10546875t0.80078125,0.3125t0.625,0.52734375t0.25,0.734375q0,0.1953125-0.06640625,0.296875t-0.26953125,0.1015625l-0.0859375-0.015625q0.2265625,0.609375,0.390625,1.25t0.3203125,1.28125q0.0625,0.125,0.09375,0.22265625t0.03125,0.19140625q0,0.125-0.0703125,0.20703125t-0.18359375,0.12109375t-0.234375,0.0546875t-0.21484375,0.015625q-0.3359375,0-0.50390625-0.1171875t-0.2421875-0.3203125t-0.08984375-0.45703125t-0.0625-0.51171875q-0.09375,0.3046875-0.24609375,0.59375t-0.359375,0.51953125t-0.48828125,0.3671875t-0.6328125,0.13671875q-0.515625,0-0.8671875-0.296875t-0.56640625-0.73046875t-0.3125-0.92578125t-0.09765625-0.9140625z M133.679453125,29.9765625q0,0.2890625,0.0390625,0.609375t0.12890625,0.6328125t0.23046875,0.58984375t0.3515625,0.48828125q0.3828125-0.4140625,0.56640625-1.0078125t0.328125-1.14453125t0.328125-0.9453125t0.56640625-0.39453125q0.2421875,0,0.40625,0.0859375q-0.078125-0.1953125-0.2578125-0.37890625t-0.40234375-0.3359375t-0.4609375-0.25t-0.44921875-0.09765625q-0.0625,0-0.14453125,0.01953125t-0.12890625,0.00390625q-0.3203125,0.09375-0.52734375,0.32421875t-0.3359375,0.54296875t-0.18359375,0.640625t-0.0546875,0.6171875z M139.3409375,33.2578125l0.1640625-0.1953125q-0.03125-1.3125-0.0703125-2.6171875t-0.0390625-2.59375q0-1.6015625,0.19140625-3.09765625t0.37890625-3.06640625q0.015625-0.09375,0.08984375-0.15234375t0.18359375-0.09765625t0.22265625-0.0546875t0.20703125-0.015625q0.125,0,0.3125,0.046875t0.375,0.2734375q0,0.078125,0.01171875,0.13671875t0.01171875,0.13671875q0,0.59375-0.16015625,1.2734375t-0.21484375,1.3046875q-0.0625,0.765625-0.0859375,1.515625t-0.0234375,1.5234375l0.015625,0.6875q0.15625-0.1953125,0.4453125-0.5t0.625-0.58984375t0.671875-0.48828125t0.609375-0.203125q0.4140625,0,0.57421875,0.234375t0.16015625,0.6171875q0,0.3515625-0.15234375,0.734375t-0.3984375,0.74609375t-0.55859375,0.65234375t-0.6171875,0.4296875q0.4140625,0.515625,0.84765625,0.984375t0.94921875,0.8828125l0,0.1796875q-0.015625,0.078125-0.09765625,0.1171875t-0.1796875,0.0625t-0.19140625,0.03515625t-0.15625,0.01171875q-0.3828125,0-0.73828125-0.2265625t-0.6640625-0.5546875t-0.58203125-0.6953125t-0.5-0.640625q0.046875,0.8984375,0.10546875,1.79296875t0.05859375,1.79296875q0,0.109375-0.09765625,0.18359375t-0.2265625,0.11328125t-0.26171875,0.0546875t-0.21875,0.015625q-0.4609375,0-0.65234375-0.16796875t-0.32421875-0.58203125z M140.9425,29.578125q0.1953125,0,0.46484375-0.16796875t0.55859375-0.41796875t0.5390625-0.52734375t0.40234375-0.52734375t0.15234375-0.40234375t-0.2109375-0.13671875q-0.078125,0-0.3203125,0.2265625t-0.5390625,0.5546875t-0.59375,0.7109375t-0.453125,0.6875z M145.666484375,30.40625q0-0.546875,0.12109375-1.2890625t0.41015625-1.40625t0.76171875-1.12890625t1.19140625-0.46484375q0.671875,0,1.0078125,0.38671875t0.3359375,1.04296875q0,0.4296875-0.16015625,0.94140625t-0.45703125,0.96875t-0.703125,0.76171875t-0.90625,0.3046875l-0.203125-0.015625q0,0.2109375,0.0625,0.56640625t0.18359375,0.70703125t0.3125,0.6171875t0.46484375,0.265625q0.3984375,0,0.765625-0.3203125t0.6953125-0.7109375t0.609375-0.7109375t0.515625-0.3203125q0.125,0,0.2578125,0.0390625t0.1484375,0.21875q0,0.109375-0.05859375,0.1796875t-0.10546875,0.15625q-0.2421875,0.4140625-0.52734375,0.7890625t-0.64453125,0.6796875t-0.78515625,0.48046875t-0.94140625,0.17578125q-0.671875,0-1.1171875-0.23828125t-0.71875-0.640625t-0.39453125-0.9296875t-0.12109375-1.10546875z M147.064921875,29.8125l0.21875,0.1953125q0.15625,0.140625,0.3125,0.0625t0.28125-0.28515625t0.23046875-0.51171875t0.1875-0.625t0.12109375-0.625t0.0390625-0.5078125l0-0.265625t-0.0234375-0.28125t-0.08203125-0.22265625t-0.18359375-0.11328125q-0.0390625-0.0078125-0.0703125-0.0078125q-0.265625,0-0.453125,0.3359375q-0.203125,0.375-0.328125,0.91015625t-0.1796875,1.09765625t-0.0703125,0.84375z M152.20296875,30.125l0-0.2265625q0-0.28125,0.015625-0.53125q0.015625-0.3515625,0.015625-0.578125q0-0.125,0.015625-0.28515625t0.078125-0.25390625q0.078125-0.078125,0.18359375-0.16015625t0.23046875-0.08203125q0.3984375,0,0.625,0.08984375t0.2421875,0.37109375l0.03125,0.2421875q0.140625-0.3359375,0.375-0.83203125t0.54296875-0.9453125t0.6953125-0.765625t0.81640625-0.31640625q0.3984375,0,0.65625,0.375t0.41015625,0.95703125t0.21484375,1.296875t0.0859375,1.40234375t0.03125,1.25390625t0.0546875,0.85546875q0.03125,0.2421875,0.10546875,0.51171875t0.07421875,0.49609375q0,0.0625-0.08984375,0.12109375t-0.19140625,0.09765625t-0.20703125,0.0625t-0.15234375,0.0234375q-0.3046875,0-0.43359375-0.45703125t-0.16015625-1.14453125t-0.03125-1.48828125t-0.0546875-1.48828125t-0.22265625-1.14453125t-0.53515625-0.47265625q-0.3359375,0-0.6953125,0.43359375t-0.6171875,1.15234375q-0.25,0.71875-0.34375,1.6328125q-0.03125,0.2890625-0.03125,0.578125q0,0.6328125,0.1328125,1.265625q0.015625,0.109375-0.08984375,0.1640625t-0.26171875,0.0859375t-0.31640625,0.0390625t-0.24609375,0.0078125q-0.3046875,0-0.48828125-0.21484375t-0.28515625-0.55078125t-0.13671875-0.75390625t-0.04296875-0.82421875z M162.0259375,25.125q0-0.109375,0.234375-0.1875t0.53125-0.12890625t0.57421875-0.07421875t0.37890625-0.0390625q0-0.2109375,0.015625-0.42578125t0.0859375-0.3828125t0.22265625-0.26953125t0.42578125-0.1015625q0.2265625,0,0.34375,0.0546875t0.25,0.2265625q0.03125,0.09375,0.03125,0.1796875l0,0.26171875t-0.015625,0.26953125q0.2890625-0.03125,0.57421875-0.07421875t0.57421875-0.04296875q0.2109375,0,0.2890625,0.0078125t0.15625,0.1875q0.0625,0.1796875-0.15234375,0.2734375t-0.515625,0.140625t-0.59765625,0.0703125t-0.359375,0.0234375q-0.09375,1.34375-0.19140625,2.6640625t-0.09765625,2.6796875q0,0.609375,0.0390625,1.2578125t0.21875,1.2265625q0.046875,0.1796875,0.15625,0.3359375t0.109375,0.3359375q0,0.109375-0.0859375,0.171875t-0.20703125,0.10546875t-0.2421875,0.05078125t-0.19921875,0.0078125q-0.4921875,0-0.75-0.3671875t-0.37109375-0.87890625t-0.12109375-1.05078125t-0.0078125-0.875q0-0.6875,0.02734375-1.40625t0.06640625-1.421875t0.109375-1.375t0.1640625-1.25q-0.2734375,0.03125-0.53515625,0.0703125t-0.53515625,0.0390625q-0.0625,0-0.16796875-0.0078125t-0.19921875-0.0390625t-0.16015625-0.0859375t-0.06640625-0.15625z M167.999921875,30.0859375q0-0.53125,0.14453125-1.0234375t0.43359375-0.87890625t0.72265625-0.6171875t1.00390625-0.23046875q0.3515625,0,0.77734375,0.10546875t0.80078125,0.3125t0.625,0.52734375t0.25,0.734375q0,0.1953125-0.06640625,0.296875t-0.26953125,0.1015625l-0.0859375-0.015625q0.2265625,0.609375,0.390625,1.25t0.3203125,1.28125q0.0625,0.125,0.09375,0.22265625t0.03125,0.19140625q0,0.125-0.0703125,0.20703125t-0.18359375,0.12109375t-0.234375,0.0546875t-0.21484375,0.015625q-0.3359375,0-0.50390625-0.1171875t-0.2421875-0.3203125t-0.08984375-0.45703125t-0.0625-0.51171875q-0.09375,0.3046875-0.24609375,0.59375t-0.359375,0.51953125t-0.48828125,0.3671875t-0.6328125,0.13671875q-0.515625,0-0.8671875-0.296875t-0.56640625-0.73046875t-0.3125-0.92578125t-0.09765625-0.9140625z M169.109296875,29.9765625q0,0.2890625,0.0390625,0.609375t0.12890625,0.6328125t0.23046875,0.58984375t0.3515625,0.48828125q0.3828125-0.4140625,0.56640625-1.0078125t0.328125-1.14453125t0.328125-0.9453125t0.56640625-0.39453125q0.2421875,0,0.40625,0.0859375q-0.078125-0.1953125-0.2578125-0.37890625t-0.40234375-0.3359375t-0.4609375-0.25t-0.44921875-0.09765625q-0.0625,0-0.14453125,0.01953125t-0.12890625,0.00390625q-0.3203125,0.09375-0.52734375,0.32421875t-0.3359375,0.54296875t-0.18359375,0.640625t-0.0546875,0.6171875z M174.77078125,32.859375q0-0.2265625,0.01953125-0.4765625t0.03515625-0.46875l0.046875-1.171875q0.078125-1.40625,0.19140625-2.765625t0.19140625-2.75q0.046875-0.765625,0.0703125-1.50390625t0.0703125-1.50390625q-0.03125-0.0625-0.03125-0.0859375q0-0.109375,0.08203125-0.171875t0.19140625-0.10546875t0.23046875-0.05859375t0.18359375-0.015625l0.1796875,0q0.2421875,0.03125,0.3515625,0.15234375t0.140625,0.2890625t0.015625,0.359375t-0.015625,0.35546875q0,1.1328125-0.0546875,2.30859375t-0.125,2.359375t-0.12890625,2.3671875t-0.05859375,2.33984375l0,0.546875q0,0.3671875-0.20703125,0.484375t-0.57421875,0.1171875q-0.3203125,0-0.5625-0.140625t-0.2421875-0.4609375z M178.354140625,30.40625q0-0.546875,0.12109375-1.2890625t0.41015625-1.40625t0.76171875-1.12890625t1.19140625-0.46484375q0.671875,0,1.0078125,0.38671875t0.3359375,1.04296875q0,0.4296875-0.16015625,0.94140625t-0.45703125,0.96875t-0.703125,0.76171875t-0.90625,0.3046875l-0.203125-0.015625q0,0.2109375,0.0625,0.56640625t0.18359375,0.70703125t0.3125,0.6171875t0.46484375,0.265625q0.3984375,0,0.765625-0.3203125t0.6953125-0.7109375t0.609375-0.7109375t0.515625-0.3203125q0.125,0,0.2578125,0.0390625t0.1484375,0.21875q0,0.109375-0.05859375,0.1796875t-0.10546875,0.15625q-0.2421875,0.4140625-0.52734375,0.7890625t-0.64453125,0.6796875t-0.78515625,0.48046875t-0.94140625,0.17578125q-0.671875,0-1.1171875-0.23828125t-0.71875-0.640625t-0.39453125-0.9296875t-0.12109375-1.10546875z M179.752578125,29.8125l0.21875,0.1953125q0.15625,0.140625,0.3125,0.0625t0.28125-0.28515625t0.23046875-0.51171875t0.1875-0.625t0.12109375-0.625t0.0390625-0.5078125l0-0.265625t-0.0234375-0.28125t-0.08203125-0.22265625t-0.18359375-0.11328125q-0.0390625-0.0078125-0.0703125-0.0078125q-0.265625,0-0.453125,0.3359375q-0.203125,0.375-0.328125,0.91015625t-0.1796875,1.09765625t-0.0703125,0.84375z M184.890625,30.125l0-0.2265625q0-0.28125,0.015625-0.53125q0.015625-0.3515625,0.015625-0.578125q0-0.125,0.015625-0.28515625t0.078125-0.25390625q0.078125-0.078125,0.18359375-0.16015625t0.23046875-0.08203125q0.3984375,0,0.625,0.08984375t0.2421875,0.37109375l0.03125,0.2421875q0.140625-0.3359375,0.375-0.83203125t0.54296875-0.9453125t0.6953125-0.765625t0.81640625-0.31640625q0.3984375,0,0.65625,0.375t0.41015625,0.95703125t0.21484375,1.296875t0.0859375,1.40234375t0.03125,1.25390625t0.0546875,0.85546875q0.03125,0.2421875,0.10546875,0.51171875t0.07421875,0.49609375q0,0.0625-0.08984375,0.12109375t-0.19140625,0.09765625t-0.20703125,0.0625t-0.15234375,0.0234375q-0.3046875,0-0.43359375-0.45703125t-0.16015625-1.14453125t-0.03125-1.48828125t-0.0546875-1.48828125t-0.22265625-1.14453125t-0.53515625-0.47265625q-0.3359375,0-0.6953125,0.43359375t-0.6171875,1.15234375q-0.25,0.71875-0.34375,1.6328125q-0.03125,0.2890625-0.03125,0.578125q0,0.6328125,0.1328125,1.265625q0.015625,0.109375-0.08984375,0.1640625t-0.26171875,0.0859375t-0.31640625,0.0390625t-0.24609375,0.0078125q-0.3046875,0-0.48828125-0.21484375t-0.28515625-0.55078125t-0.13671875-0.75390625t-0.04296875-0.82421875z M191.669296875,25.125q0-0.109375,0.234375-0.1875t0.53125-0.12890625t0.57421875-0.07421875t0.37890625-0.0390625q0-0.2109375,0.015625-0.42578125t0.0859375-0.3828125t0.22265625-0.26953125t0.42578125-0.1015625q0.2265625,0,0.34375,0.0546875t0.25,0.2265625q0.03125,0.09375,0.03125,0.1796875l0,0.26171875t-0.015625,0.26953125q0.2890625-0.03125,0.57421875-0.07421875t0.57421875-0.04296875q0.2109375,0,0.2890625,0.0078125t0.15625,0.1875q0.0625,0.1796875-0.15234375,0.2734375t-0.515625,0.140625t-0.59765625,0.0703125t-0.359375,0.0234375q-0.09375,1.34375-0.19140625,2.6640625t-0.09765625,2.6796875q0,0.609375,0.0390625,1.2578125t0.21875,1.2265625q0.046875,0.1796875,0.15625,0.3359375t0.109375,0.3359375q0,0.109375-0.0859375,0.171875t-0.20703125,0.10546875t-0.2421875,0.05078125t-0.19921875,0.0078125q-0.4921875,0-0.75-0.3671875t-0.37109375-0.87890625t-0.12109375-1.05078125t-0.0078125-0.875q0-0.6875,0.02734375-1.40625t0.06640625-1.421875t0.109375-1.375t0.1640625-1.25q-0.2734375,0.03125-0.53515625,0.0703125t-0.53515625,0.0390625q-0.0625,0-0.16796875-0.0078125t-0.19921875-0.0390625t-0.16015625-0.0859375t-0.06640625-0.15625z M200.687578125,28.0703125q0-0.3203125,0.1875-0.55078125t0.45703125-0.375t0.58984375-0.21484375t0.59375-0.0703125q0.2109375,0,0.5625,0.0625t0.6875,0.1875t0.58203125,0.328125t0.24609375,0.4765625q0,0.125-0.09375,0.22265625t-0.1953125,0.09765625q-0.2109375,0-0.3828125-0.13671875t-0.35546875-0.2890625t-0.40234375-0.2890625t-0.4921875-0.13671875t-0.49609375,0.17578125t-0.22265625,0.46484375q0,0.4765625,0.3359375,0.93359375t0.73828125,0.9609375t0.73828125,1.05859375t0.3359375,1.2265625q0,0.2890625-0.12109375,0.48828125t-0.3203125,0.32421875t-0.44921875,0.19140625t-0.484375,0.06640625q-0.2578125,0-0.6015625-0.12109375t-0.6484375-0.3203125t-0.51171875-0.46484375t-0.20703125-0.5546875q0-0.140625,0.19921875-0.1796875t0.29296875-0.0390625q0.046875,0,0.14453125,0.03125t0.19140625,0.0703125t0.16796875,0.0859375t0.05859375,0.1015625q0.078125,0.09375,0.23828125,0.27734375t0.3203125,0.296875t0.28125,0.08203125t0.12109375-0.3515625q0-0.609375-0.328125-1.12109375t-0.71484375-1t-0.71484375-0.96875t-0.328125-1.02734375z M206.1928125,30.40625q0-0.546875,0.12109375-1.2890625t0.41015625-1.40625t0.76171875-1.12890625t1.19140625-0.46484375q0.671875,0,1.0078125,0.38671875t0.3359375,1.04296875q0,0.4296875-0.16015625,0.94140625t-0.45703125,0.96875t-0.703125,0.76171875t-0.90625,0.3046875l-0.203125-0.015625q0,0.2109375,0.0625,0.56640625t0.18359375,0.70703125t0.3125,0.6171875t0.46484375,0.265625q0.3984375,0,0.765625-0.3203125t0.6953125-0.7109375t0.609375-0.7109375t0.515625-0.3203125q0.125,0,0.2578125,0.0390625t0.1484375,0.21875q0,0.109375-0.05859375,0.1796875t-0.10546875,0.15625q-0.2421875,0.4140625-0.52734375,0.7890625t-0.64453125,0.6796875t-0.78515625,0.48046875t-0.94140625,0.17578125q-0.671875,0-1.1171875-0.23828125t-0.71875-0.640625t-0.39453125-0.9296875t-0.12109375-1.10546875z M207.59125,29.8125l0.21875,0.1953125q0.15625,0.140625,0.3125,0.0625t0.28125-0.28515625t0.23046875-0.51171875t0.1875-0.625t0.12109375-0.625t0.0390625-0.5078125l0-0.265625t-0.0234375-0.28125t-0.08203125-0.22265625t-0.18359375-0.11328125q-0.0390625-0.0078125-0.0703125-0.0078125q-0.265625,0-0.453125,0.3359375q-0.203125,0.375-0.328125,0.91015625t-0.1796875,1.09765625t-0.0703125,0.84375z M212.721484375,30.40625q0-0.546875,0.12109375-1.2890625t0.41015625-1.40625t0.76171875-1.12890625t1.19140625-0.46484375q0.671875,0,1.0078125,0.38671875t0.3359375,1.04296875q0,0.4296875-0.16015625,0.94140625t-0.45703125,0.96875t-0.703125,0.76171875t-0.90625,0.3046875l-0.203125-0.015625q0,0.2109375,0.0625,0.56640625t0.18359375,0.70703125t0.3125,0.6171875t0.46484375,0.265625q0.3984375,0,0.765625-0.3203125t0.6953125-0.7109375t0.609375-0.7109375t0.515625-0.3203125q0.125,0,0.2578125,0.0390625t0.1484375,0.21875q0,0.109375-0.05859375,0.1796875t-0.10546875,0.15625q-0.2421875,0.4140625-0.52734375,0.7890625t-0.64453125,0.6796875t-0.78515625,0.48046875t-0.94140625,0.17578125q-0.671875,0-1.1171875-0.23828125t-0.71875-0.640625t-0.39453125-0.9296875t-0.12109375-1.10546875z M214.119921875,29.8125l0.21875,0.1953125q0.15625,0.140625,0.3125,0.0625t0.28125-0.28515625t0.23046875-0.51171875t0.1875-0.625t0.12109375-0.625t0.0390625-0.5078125l0-0.265625t-0.0234375-0.28125t-0.08203125-0.22265625t-0.18359375-0.11328125q-0.0390625-0.0078125-0.0703125-0.0078125q-0.265625,0-0.453125,0.3359375q-0.203125,0.375-0.328125,0.91015625t-0.1796875,1.09765625t-0.0703125,0.84375z M219.25015625,29.9921875q0-0.609375,0.12890625-1.10546875t0.41015625-0.83984375t0.73828125-0.53515625t1.11328125-0.19140625q0.3671875,0,0.75,0.09765625t0.65625,0.36328125q0-0.15625,0.03125-0.64453125t0.078125-1.13671875t0.09765625-1.359375t0.08984375-1.3203125t0.0703125-1.0234375t0.046875-0.46875q0.078125-0.2265625,0.2890625-0.26953125t0.3984375-0.04296875q0.4921875,0,0.60546875,0.15625t0.11328125,0.625q0,1.7109375-0.15234375,3.40625t-0.15234375,3.40625q0,1.1015625,0.04296875,2.21484375t0.30859375,2.19140625l0.0859375,0.078125l0.046875,0.140625l-0.1171875,0.1796875q-0.296875,0.1875-0.6875,0.1875l-0.03125,0q-0.3984375,0-0.734375-0.1875q-0.125-0.078125-0.20703125-0.46484375t-0.12890625-0.8515625t-0.0703125-0.89453125t-0.0390625-0.609375q-0.2734375,0.625-0.74609375,1.07421875t-1.19140625,0.44921875q-0.5625,0-0.921875-0.2421875t-0.55859375-0.6171875t-0.28125-0.83984375t-0.08203125-0.92578125z M220.19546875,30.0390625q0,0.1796875,0.04296875,0.53125t0.13671875,0.703125t0.26171875,0.625t0.44140625,0.2734375q0.3671875-0.1796875,0.6640625-0.59765625t0.51171875-0.921875t0.3359375-1.0078125t0.12109375-0.87109375q0-0.4609375-0.3359375-0.765625t-0.8046875-0.3046875q-0.140625,0-0.28515625,0.0546875t-0.26953125,0.125q-0.2890625,0.2734375-0.44921875,0.49609375t-0.2421875,0.4609375t-0.10546875,0.52734375t-0.0234375,0.671875z M226.646015625,28.0703125q0-0.3203125,0.1875-0.55078125t0.45703125-0.375t0.58984375-0.21484375t0.59375-0.0703125q0.2109375,0,0.5625,0.0625t0.6875,0.1875t0.58203125,0.328125t0.24609375,0.4765625q0,0.125-0.09375,0.22265625t-0.1953125,0.09765625q-0.2109375,0-0.3828125-0.13671875t-0.35546875-0.2890625t-0.40234375-0.2890625t-0.4921875-0.13671875t-0.49609375,0.17578125t-0.22265625,0.46484375q0,0.4765625,0.3359375,0.93359375t0.73828125,0.9609375t0.73828125,1.05859375t0.3359375,1.2265625q0,0.2890625-0.12109375,0.48828125t-0.3203125,0.32421875t-0.44921875,0.19140625t-0.484375,0.06640625q-0.2578125,0-0.6015625-0.12109375t-0.6484375-0.3203125t-0.51171875-0.46484375t-0.20703125-0.5546875q0-0.140625,0.19921875-0.1796875t0.29296875-0.0390625q0.046875,0,0.14453125,0.03125t0.19140625,0.0703125t0.16796875,0.0859375t0.05859375,0.1015625q0.078125,0.09375,0.23828125,0.27734375t0.3203125,0.296875t0.28125,0.08203125t0.12109375-0.3515625q0-0.609375-0.328125-1.12109375t-0.71484375-1t-0.71484375-0.96875t-0.328125-1.02734375z"/></svg>
